<svg width="362" height="283" viewBox="0 0 362 283" fill="none" xmlns="http://www.w3.org/2000/svg">
<mask id="mask0_15_3" style="mask-type:alpha" maskUnits="userSpaceOnUse" x="130" y="94" width="100" height="189">
<path d="M230 176.211C230 221.615 171.667 266.049 180 283C161.863 266.049 130 221.615 130 176.211C130 130.807 158.922 99.0852 180 94C204.02 99.0852 230 130.807 230 176.211Z" fill="#E6CB6D"/>
</mask>
<g mask="url(#mask0_15_3)">
<path d="M230 176.211C230 221.615 171.667 266.049 180 283C161.863 266.049 130 221.615 130 176.211C130 130.807 158.922 99.0852 180 94C204.02 99.0852 230 130.807 230 176.211Z" fill="#DDA853"/>
<mask id="mask1_15_3" style="mask-type:alpha" maskUnits="userSpaceOnUse" x="113" y="221" width="134" height="30">
<path d="M125.912 223.354C126.377 222.517 127.421 221.978 128.574 221.978H231.143C232.261 221.978 233.281 222.486 233.765 223.285L241.15 235.466L246.505 247.735C247.158 249.232 245.755 250.794 243.755 250.794H116.244C114.362 250.794 112.976 249.4 113.415 247.95L114.723 243.634C114.763 243.503 114.818 243.374 114.886 243.25L118.5 236.692L125.912 223.354Z" fill="#E6CB6D"/>
</mask>
<g mask="url(#mask1_15_3)">
<path d="M125.912 223.354C126.377 222.517 127.421 221.978 128.574 221.978H231.143C232.261 221.978 233.281 222.486 233.765 223.285L241.15 235.466L246.505 247.735C247.158 249.232 245.755 250.794 243.755 250.794H116.244C114.362 250.794 112.976 249.4 113.415 247.95L114.723 243.634C114.763 243.503 114.818 243.374 114.886 243.25L118.5 236.692L125.912 223.354Z" fill="#F5EEDC"/>
</g>
<mask id="mask2_15_3" style="mask-type:alpha" maskUnits="userSpaceOnUse" x="113" y="170" width="134" height="30">
<path d="M125.912 171.654C126.377 170.818 127.421 170.278 128.574 170.278H231.143C232.261 170.278 233.281 170.786 233.765 171.585L241.15 183.766L246.505 196.035C247.158 197.533 245.755 199.094 243.755 199.094H116.244C114.362 199.094 112.976 197.7 113.415 196.251L114.723 191.935C114.763 191.803 114.818 191.675 114.886 191.551L118.5 184.993L125.912 171.654Z" fill="#E6CB6D"/>
</mask>
<g mask="url(#mask2_15_3)">
<path d="M125.912 171.654C126.377 170.818 127.421 170.278 128.574 170.278H231.143C232.261 170.278 233.281 170.786 233.765 171.585L241.15 183.766L246.505 196.035C247.158 197.533 245.755 199.094 243.755 199.094H116.244C114.362 199.094 112.976 197.7 113.415 196.251L114.723 191.935C114.763 191.803 114.818 191.675 114.886 191.551L118.5 184.993L125.912 171.654Z" fill="#F5EEDC"/>
</g>
<mask id="mask3_15_3" style="mask-type:alpha" maskUnits="userSpaceOnUse" x="130" y="118" width="100" height="30">
<path d="M139.434 119.955C139.782 119.118 140.566 118.578 141.431 118.578H218.357C219.196 118.578 219.961 119.087 220.324 119.886L225.862 132.067L229.878 144.336C230.369 145.833 229.316 147.395 227.816 147.395H132.183C130.772 147.395 129.732 146.001 130.061 144.551L131.042 140.235C131.072 140.104 131.113 139.975 131.164 139.851L133.875 133.293L139.434 119.955Z" fill="#E6CB6D"/>
</mask>
<g mask="url(#mask3_15_3)">
<path d="M139.434 119.955C139.782 119.118 140.566 118.578 141.431 118.578H218.357C219.196 118.578 219.961 119.087 220.324 119.886L225.862 132.067L229.878 144.336C230.369 145.833 229.316 147.395 227.816 147.395H132.183C130.772 147.395 129.732 146.001 130.061 144.551L131.042 140.235C131.072 140.104 131.113 139.975 131.164 139.851L133.875 133.293L139.434 119.955Z" fill="#F5EEDC"/>
</g>
</g>
<path d="M179.5 35.5C191.442 35.5 202.23 38.2273 210.014 42.6113C217.813 47.0042 222.5 52.9951 222.5 59.5C222.5 66.0049 217.813 71.9958 210.014 76.3887C202.23 80.7727 191.442 83.5 179.5 83.5C167.558 83.5 156.77 80.7727 148.986 76.3887C141.187 71.9958 136.5 66.0049 136.5 59.5C136.5 52.9951 141.187 47.0042 148.986 42.6113C156.77 38.2273 167.558 35.5 179.5 35.5Z" fill="#DDA853" stroke="#DDA853"/>
<path d="M200.206 39.3096C210.862 14.0141 221.877 7.61279 251.341 11.3511" stroke="#DDA853" stroke-width="6"/>
<circle cx="250.5" cy="12.5" r="7" fill="#DDA853" stroke="#DDA853"/>
<path d="M159.794 39.3096C149.138 14.0141 138.123 7.61279 108.659 11.3511" stroke="#DDA853" stroke-width="6"/>
<circle cx="7.5" cy="7.5" r="7" transform="matrix(-1 0 0 1 117 5)" fill="#DDA853" stroke="#DDA853"/>
<path d="M237.383 124.104C256.9 102.096 300.469 69.7697 334.004 59.75C367.539 49.7302 333.97 116.638 317.079 120.122C300.188 123.606 292.766 120.456 282.107 130.571C271.447 140.686 217.867 146.112 237.383 124.104Z" fill="#DDA853"/>
<path d="M240.818 128.35C263.251 126.094 305.244 130.082 330.414 141.131C355.584 152.18 303.017 171.658 291.091 165.254C279.165 158.85 276.178 153.523 264.842 153.732C253.507 153.941 218.385 130.606 240.818 128.35Z" fill="#DDA853"/>
<path d="M123.838 123.776C104.322 101.768 60.7528 69.4416 27.2176 59.4218C-6.31748 49.4021 27.2517 116.31 44.1428 119.794C61.0339 123.278 68.4554 120.128 79.1151 130.243C89.7748 140.358 143.355 145.784 123.838 123.776Z" fill="#DDA853"/>
<path d="M120.404 128.022C97.9706 125.766 55.9777 129.754 30.8078 140.803C5.6378 151.852 58.2047 171.33 70.1304 164.926C82.0561 158.522 85.0434 153.195 96.3791 153.404C107.715 153.613 142.837 130.278 120.404 128.022Z" fill="#DDA853"/>
</svg>
